<mxfile host="app.diagrams.net" agent="Mozilla/5.0 (Windows NT 10.0; Win64; x64) AppleWebKit/537.36 (KHTML, like Gecko) Chrome/130.0.0.0 Safari/537.36" version="24.8.3">
  <diagram name="Page-1" id="wQ05Q11OmfHVPU2UBhi2">
    <mxGraphModel dx="880" dy="434" grid="0" gridSize="10" guides="1" tooltips="1" connect="1" arrows="1" fold="1" page="1" pageScale="1" pageWidth="827" pageHeight="1169" math="0" shadow="0">
      <root>
        <mxCell id="0" />
        <mxCell id="1" parent="0" />
        <mxCell id="f6Qs1_ejb4W0hrU8sFKK-9" value="&lt;p style=&quot;margin:0px;margin-top:4px;text-align:center;&quot;&gt;&lt;i&gt;&amp;lt;&amp;lt;Interface&amp;gt;&amp;gt;&lt;/i&gt;&lt;br&gt;&lt;b&gt;Shape&lt;/b&gt;&lt;/p&gt;&lt;hr size=&quot;1&quot; style=&quot;border-style:solid;&quot;&gt;&lt;p style=&quot;margin:0px;margin-left:4px;&quot;&gt;+ setPosition (Point): void&lt;/p&gt;&lt;p style=&quot;margin:0px;margin-left:4px;&quot;&gt;+ getPosition (): Point&lt;/p&gt;&lt;p style=&quot;margin:0px;margin-left:4px;&quot;&gt;+ setPropeties (Map &amp;lt;String, Double&amp;gt;): void&lt;/p&gt;&lt;p style=&quot;margin:0px;margin-left:4px;&quot;&gt;+ getProperties (): Map &amp;lt;String, Double&amp;gt;&lt;/p&gt;&lt;p style=&quot;margin:0px;margin-left:4px;&quot;&gt;+ setColor (Color): void&lt;/p&gt;&lt;p style=&quot;margin:0px;margin-left:4px;&quot;&gt;+ getColor (): Color&lt;/p&gt;&lt;p style=&quot;margin:0px;margin-left:4px;&quot;&gt;+ setFillColor (Color): void&lt;/p&gt;&lt;p style=&quot;margin:0px;margin-left:4px;&quot;&gt;+ getFillColor (): Color&lt;/p&gt;&lt;p style=&quot;margin:0px;margin-left:4px;&quot;&gt;+ setName (String): void&lt;/p&gt;&lt;p style=&quot;margin:0px;margin-left:4px;&quot;&gt;+ getName (): String&lt;/p&gt;&lt;p style=&quot;margin:0px;margin-left:4px;&quot;&gt;+ draw (Graphics): void&lt;/p&gt;" style="verticalAlign=top;align=left;overflow=fill;html=1;whiteSpace=wrap;labelBackgroundColor=none;fillColor=#FAE5C7;strokeColor=#0F8B8D;fontColor=#143642;" vertex="1" parent="1">
          <mxGeometry x="258" y="8" width="252" height="210" as="geometry" />
        </mxCell>
        <mxCell id="f6Qs1_ejb4W0hrU8sFKK-10" value="Point" style="swimlane;fontStyle=1;align=center;verticalAlign=top;childLayout=stackLayout;horizontal=1;startSize=26;horizontalStack=0;resizeParent=1;resizeParentMax=0;resizeLast=0;collapsible=1;marginBottom=0;whiteSpace=wrap;html=1;labelBackgroundColor=none;fillColor=#FAE5C7;strokeColor=#0F8B8D;fontColor=#143642;" vertex="1" parent="1">
          <mxGeometry x="20" y="10" width="190" height="150" as="geometry" />
        </mxCell>
        <mxCell id="f6Qs1_ejb4W0hrU8sFKK-11" value="- x: double&lt;div&gt;- y: double&lt;/div&gt;" style="text;strokeColor=none;fillColor=none;align=left;verticalAlign=top;spacingLeft=4;spacingRight=4;overflow=hidden;rotatable=0;points=[[0,0.5],[1,0.5]];portConstraint=eastwest;whiteSpace=wrap;html=1;labelBackgroundColor=none;fontColor=#143642;" vertex="1" parent="f6Qs1_ejb4W0hrU8sFKK-10">
          <mxGeometry y="26" width="190" height="34" as="geometry" />
        </mxCell>
        <mxCell id="f6Qs1_ejb4W0hrU8sFKK-12" value="" style="line;strokeWidth=1;fillColor=none;align=left;verticalAlign=middle;spacingTop=-1;spacingLeft=3;spacingRight=3;rotatable=0;labelPosition=right;points=[];portConstraint=eastwest;strokeColor=#0F8B8D;labelBackgroundColor=none;fontColor=#143642;" vertex="1" parent="f6Qs1_ejb4W0hrU8sFKK-10">
          <mxGeometry y="60" width="190" height="8" as="geometry" />
        </mxCell>
        <mxCell id="f6Qs1_ejb4W0hrU8sFKK-13" value="+ setPoint (double, double): void&lt;div&gt;+ setX (double): void&lt;/div&gt;&lt;div&gt;+ setY (double): void&lt;/div&gt;&lt;div&gt;+ getX (): int&lt;/div&gt;&lt;div&gt;+ getY (): int&lt;/div&gt;" style="text;strokeColor=none;fillColor=none;align=left;verticalAlign=top;spacingLeft=4;spacingRight=4;overflow=hidden;rotatable=0;points=[[0,0.5],[1,0.5]];portConstraint=eastwest;whiteSpace=wrap;html=1;labelBackgroundColor=none;fontColor=#143642;" vertex="1" parent="f6Qs1_ejb4W0hrU8sFKK-10">
          <mxGeometry y="68" width="190" height="82" as="geometry" />
        </mxCell>
        <mxCell id="f6Qs1_ejb4W0hrU8sFKK-14" value="Use" style="endArrow=open;endSize=12;dashed=1;html=1;rounded=0;exitX=0;exitY=0.25;exitDx=0;exitDy=0;entryX=1;entryY=0.794;entryDx=0;entryDy=0;entryPerimeter=0;labelBackgroundColor=none;strokeColor=#A8201A;fontColor=default;" edge="1" parent="1" source="f6Qs1_ejb4W0hrU8sFKK-9" target="f6Qs1_ejb4W0hrU8sFKK-11">
          <mxGeometry width="160" relative="1" as="geometry">
            <mxPoint x="130" y="250" as="sourcePoint" />
            <mxPoint x="290" y="250" as="targetPoint" />
          </mxGeometry>
        </mxCell>
        <mxCell id="f6Qs1_ejb4W0hrU8sFKK-15" value="&lt;p style=&quot;margin:0px;margin-top:4px;text-align:center;&quot;&gt;&lt;i&gt;&amp;lt;&amp;lt;Interface&amp;gt;&amp;gt;&lt;/i&gt;&lt;br&gt;&lt;b&gt;DrawingEngine&lt;/b&gt;&lt;/p&gt;&lt;hr size=&quot;1&quot; style=&quot;border-style:solid;&quot;&gt;&lt;p style=&quot;margin:0px;margin-left:4px;&quot;&gt;+ addShape (Shape): void&lt;/p&gt;&lt;p style=&quot;margin:0px;margin-left:4px;&quot;&gt;+ removeShape (Shape):void&lt;/p&gt;&lt;p style=&quot;margin:0px;margin-left:4px;&quot;&gt;+ getShapes (): Shape []&lt;/p&gt;&lt;p style=&quot;margin:0px;margin-left:4px;&quot;&gt;+ refresh (Graphics): void&amp;nbsp;&lt;/p&gt;" style="verticalAlign=top;align=left;overflow=fill;html=1;whiteSpace=wrap;labelBackgroundColor=none;fillColor=#FAE5C7;strokeColor=#0F8B8D;fontColor=#143642;" vertex="1" parent="1">
          <mxGeometry x="647" y="8" width="170" height="110" as="geometry" />
        </mxCell>
        <mxCell id="f6Qs1_ejb4W0hrU8sFKK-16" value="Use" style="endArrow=open;endSize=12;dashed=1;html=1;rounded=0;exitX=0;exitY=0.445;exitDx=0;exitDy=0;entryX=1;entryY=0.25;entryDx=0;entryDy=0;labelBackgroundColor=none;strokeColor=#A8201A;fontColor=default;exitPerimeter=0;" edge="1" parent="1" source="f6Qs1_ejb4W0hrU8sFKK-15" target="f6Qs1_ejb4W0hrU8sFKK-9">
          <mxGeometry width="160" relative="1" as="geometry">
            <mxPoint x="550" y="160" as="sourcePoint" />
            <mxPoint x="710" y="160" as="targetPoint" />
          </mxGeometry>
        </mxCell>
        <mxCell id="f6Qs1_ejb4W0hrU8sFKK-17" value="MiniPaintEngine" style="swimlane;fontStyle=1;align=center;verticalAlign=top;childLayout=stackLayout;horizontal=1;startSize=26;horizontalStack=0;resizeParent=1;resizeParentMax=0;resizeLast=0;collapsible=1;marginBottom=0;whiteSpace=wrap;html=1;strokeColor=#0F8B8D;fontColor=#143642;fillColor=#FAE5C7;" vertex="1" parent="1">
          <mxGeometry x="646" y="156" width="172" height="195" as="geometry" />
        </mxCell>
        <mxCell id="f6Qs1_ejb4W0hrU8sFKK-18" value="- shapes: ArrayList &amp;lt;Shape&amp;gt;&lt;div&gt;&lt;u&gt;- numOfCircles: int&lt;/u&gt;&lt;/div&gt;&lt;div&gt;&lt;u&gt;- numOfRectangles: int&lt;/u&gt;&lt;/div&gt;&lt;div&gt;&lt;u&gt;- numOfSquares: int&lt;/u&gt;&lt;/div&gt;&lt;div&gt;&lt;u&gt;- numOfLineSegments: int&lt;/u&gt;&lt;/div&gt;" style="text;strokeColor=none;fillColor=none;align=left;verticalAlign=top;spacingLeft=4;spacingRight=4;overflow=hidden;rotatable=0;points=[[0,0.5],[1,0.5]];portConstraint=eastwest;whiteSpace=wrap;html=1;fontColor=#143642;" vertex="1" parent="f6Qs1_ejb4W0hrU8sFKK-17">
          <mxGeometry y="26" width="172" height="78" as="geometry" />
        </mxCell>
        <mxCell id="f6Qs1_ejb4W0hrU8sFKK-19" value="" style="line;strokeWidth=1;fillColor=none;align=left;verticalAlign=middle;spacingTop=-1;spacingLeft=3;spacingRight=3;rotatable=0;labelPosition=right;points=[];portConstraint=eastwest;strokeColor=inherit;fontColor=#143642;" vertex="1" parent="f6Qs1_ejb4W0hrU8sFKK-17">
          <mxGeometry y="104" width="172" height="8" as="geometry" />
        </mxCell>
        <mxCell id="f6Qs1_ejb4W0hrU8sFKK-20" value="&lt;p style=&quot;margin: 0px 0px 0px 4px;&quot;&gt;+ addShape (Shape): void&lt;/p&gt;&lt;p style=&quot;margin: 0px 0px 0px 4px;&quot;&gt;+ removeShape (Shape):void&lt;/p&gt;&lt;p style=&quot;margin: 0px 0px 0px 4px;&quot;&gt;+ getShapes (): Shape []&lt;/p&gt;&lt;p style=&quot;margin: 0px 0px 0px 4px;&quot;&gt;+ refresh (Graphics): void&amp;nbsp;&lt;/p&gt;" style="text;strokeColor=none;fillColor=none;align=left;verticalAlign=top;spacingLeft=4;spacingRight=4;overflow=hidden;rotatable=0;points=[[0,0.5],[1,0.5]];portConstraint=eastwest;whiteSpace=wrap;html=1;fontColor=#143642;" vertex="1" parent="f6Qs1_ejb4W0hrU8sFKK-17">
          <mxGeometry y="112" width="172" height="83" as="geometry" />
        </mxCell>
        <mxCell id="f6Qs1_ejb4W0hrU8sFKK-21" value="" style="endArrow=block;dashed=1;endFill=0;endSize=12;html=1;rounded=0;strokeColor=#A8201A;fontColor=#143642;fillColor=#FAE5C7;exitX=0.5;exitY=0;exitDx=0;exitDy=0;entryX=0.5;entryY=1;entryDx=0;entryDy=0;" edge="1" parent="1" source="f6Qs1_ejb4W0hrU8sFKK-17" target="f6Qs1_ejb4W0hrU8sFKK-15">
          <mxGeometry width="160" relative="1" as="geometry">
            <mxPoint x="562" y="282" as="sourcePoint" />
            <mxPoint x="722" y="282" as="targetPoint" />
          </mxGeometry>
        </mxCell>
        <mxCell id="f6Qs1_ejb4W0hrU8sFKK-22" value="" style="endArrow=diamondThin;endFill=1;endSize=24;html=1;rounded=0;strokeColor=#A8201A;fontColor=#143642;fillColor=#FAE5C7;entryX=-0.012;entryY=0.167;entryDx=0;entryDy=0;entryPerimeter=0;" edge="1" parent="1" target="f6Qs1_ejb4W0hrU8sFKK-18">
          <mxGeometry width="160" relative="1" as="geometry">
            <mxPoint x="510" y="195" as="sourcePoint" />
            <mxPoint x="576.9359999999999" y="197.296" as="targetPoint" />
          </mxGeometry>
        </mxCell>
        <mxCell id="f6Qs1_ejb4W0hrU8sFKK-23" value="*" style="edgeLabel;html=1;align=center;verticalAlign=middle;resizable=0;points=[];strokeColor=#0F8B8D;fontColor=#143642;fillColor=#FAE5C7;" vertex="1" connectable="0" parent="f6Qs1_ejb4W0hrU8sFKK-22">
          <mxGeometry x="-0.0594" y="1" relative="1" as="geometry">
            <mxPoint x="-27" y="-8" as="offset" />
          </mxGeometry>
        </mxCell>
        <mxCell id="f6Qs1_ejb4W0hrU8sFKK-24" value="1" style="edgeLabel;html=1;align=center;verticalAlign=middle;resizable=0;points=[];strokeColor=#0F8B8D;fontColor=#143642;fillColor=#FAE5C7;" vertex="1" connectable="0" parent="f6Qs1_ejb4W0hrU8sFKK-22">
          <mxGeometry x="0.5377" y="-2" relative="1" as="geometry">
            <mxPoint x="-11" y="-13" as="offset" />
          </mxGeometry>
        </mxCell>
        <mxCell id="f6Qs1_ejb4W0hrU8sFKK-25" value="&lt;i&gt;AbstractShape&lt;/i&gt;" style="swimlane;fontStyle=1;align=center;verticalAlign=top;childLayout=stackLayout;horizontal=1;startSize=26;horizontalStack=0;resizeParent=1;resizeParentMax=0;resizeLast=0;collapsible=1;marginBottom=0;whiteSpace=wrap;html=1;strokeColor=#0F8B8D;fontColor=#143642;fillColor=#FAE5C7;" vertex="1" parent="1">
          <mxGeometry x="20" y="233" width="250" height="268" as="geometry" />
        </mxCell>
        <mxCell id="f6Qs1_ejb4W0hrU8sFKK-26" value="- position: Point&lt;div&gt;- properties: Map &amp;lt;String, Double&amp;gt;&lt;/div&gt;&lt;div&gt;- color: Color&lt;/div&gt;&lt;div&gt;- fillColor: Color&lt;/div&gt;&lt;div&gt;- name: String&lt;/div&gt;" style="text;strokeColor=none;fillColor=none;align=left;verticalAlign=top;spacingLeft=4;spacingRight=4;overflow=hidden;rotatable=0;points=[[0,0.5],[1,0.5]];portConstraint=eastwest;whiteSpace=wrap;html=1;fontColor=#143642;" vertex="1" parent="f6Qs1_ejb4W0hrU8sFKK-25">
          <mxGeometry y="26" width="250" height="80" as="geometry" />
        </mxCell>
        <mxCell id="f6Qs1_ejb4W0hrU8sFKK-27" value="" style="line;strokeWidth=1;fillColor=none;align=left;verticalAlign=middle;spacingTop=-1;spacingLeft=3;spacingRight=3;rotatable=0;labelPosition=right;points=[];portConstraint=eastwest;strokeColor=inherit;fontColor=#143642;" vertex="1" parent="f6Qs1_ejb4W0hrU8sFKK-25">
          <mxGeometry y="106" width="250" height="8" as="geometry" />
        </mxCell>
        <mxCell id="f6Qs1_ejb4W0hrU8sFKK-28" value="&lt;p style=&quot;margin: 0px 0px 0px 4px;&quot;&gt;+ setPosition (Point): void&lt;/p&gt;&lt;p style=&quot;margin: 0px 0px 0px 4px;&quot;&gt;+ getPosition (): Point&lt;/p&gt;&lt;p style=&quot;margin: 0px 0px 0px 4px;&quot;&gt;+ setPropeties (Map &amp;lt;String, Double&amp;gt;): void&lt;/p&gt;&lt;p style=&quot;margin: 0px 0px 0px 4px;&quot;&gt;+ getProperties (): Map &amp;lt;String, Double&amp;gt;&lt;/p&gt;&lt;p style=&quot;margin: 0px 0px 0px 4px;&quot;&gt;+ setColor (Color): void&lt;/p&gt;&lt;p style=&quot;margin: 0px 0px 0px 4px;&quot;&gt;+ getColor (): Color&lt;/p&gt;&lt;p style=&quot;margin: 0px 0px 0px 4px;&quot;&gt;+ setFillColor (Color): void&lt;/p&gt;&lt;p style=&quot;margin: 0px 0px 0px 4px;&quot;&gt;+ getFillColor (): Color&lt;/p&gt;&lt;p style=&quot;margin: 0px 0px 0px 4px;&quot;&gt;+ setName (String): void&lt;/p&gt;&lt;p style=&quot;margin: 0px 0px 0px 4px;&quot;&gt;+ getName (): String&lt;/p&gt;" style="text;strokeColor=none;fillColor=none;align=left;verticalAlign=top;spacingLeft=4;spacingRight=4;overflow=hidden;rotatable=0;points=[[0,0.5],[1,0.5]];portConstraint=eastwest;whiteSpace=wrap;html=1;fontColor=#143642;" vertex="1" parent="f6Qs1_ejb4W0hrU8sFKK-25">
          <mxGeometry y="114" width="250" height="154" as="geometry" />
        </mxCell>
        <mxCell id="f6Qs1_ejb4W0hrU8sFKK-29" value="" style="endArrow=diamondThin;endFill=1;endSize=24;html=1;rounded=0;strokeColor=#A8201A;fontColor=#143642;fillColor=#FAE5C7;exitX=0.184;exitY=1;exitDx=0;exitDy=0;exitPerimeter=0;" edge="1" parent="1" source="f6Qs1_ejb4W0hrU8sFKK-13">
          <mxGeometry width="160" relative="1" as="geometry">
            <mxPoint x="32" y="208" as="sourcePoint" />
            <mxPoint x="53" y="232" as="targetPoint" />
          </mxGeometry>
        </mxCell>
        <mxCell id="f6Qs1_ejb4W0hrU8sFKK-32" value="" style="endArrow=block;dashed=1;endFill=0;endSize=12;html=1;rounded=0;strokeColor=#A8201A;fontColor=#143642;fillColor=#FAE5C7;exitX=0.75;exitY=0;exitDx=0;exitDy=0;entryX=-0.012;entryY=0.814;entryDx=0;entryDy=0;entryPerimeter=0;" edge="1" parent="1" source="f6Qs1_ejb4W0hrU8sFKK-25" target="f6Qs1_ejb4W0hrU8sFKK-9">
          <mxGeometry width="160" relative="1" as="geometry">
            <mxPoint x="675" y="168" as="sourcePoint" />
            <mxPoint x="675" y="130" as="targetPoint" />
            <Array as="points">
              <mxPoint x="208" y="181" />
            </Array>
          </mxGeometry>
        </mxCell>
        <mxCell id="f6Qs1_ejb4W0hrU8sFKK-37" value="Extends" style="endArrow=block;endSize=16;endFill=0;html=1;rounded=0;strokeColor=#A8201A;fontColor=#143642;fillColor=#FAE5C7;exitX=0;exitY=0.25;exitDx=0;exitDy=0;entryX=1;entryY=0.056;entryDx=0;entryDy=0;entryPerimeter=0;" edge="1" parent="1" source="f6Qs1_ejb4W0hrU8sFKK-39" target="f6Qs1_ejb4W0hrU8sFKK-25">
          <mxGeometry width="160" relative="1" as="geometry">
            <mxPoint x="384" y="434" as="sourcePoint" />
            <mxPoint x="544" y="434" as="targetPoint" />
          </mxGeometry>
        </mxCell>
        <mxCell id="f6Qs1_ejb4W0hrU8sFKK-39" value="Circle" style="swimlane;fontStyle=1;align=center;verticalAlign=top;childLayout=stackLayout;horizontal=1;startSize=26;horizontalStack=0;resizeParent=1;resizeParentMax=0;resizeLast=0;collapsible=1;marginBottom=0;whiteSpace=wrap;html=1;strokeColor=#0F8B8D;fontColor=#143642;fillColor=#FAE5C7;" vertex="1" parent="1">
          <mxGeometry x="400" y="233" width="136" height="60" as="geometry" />
        </mxCell>
        <mxCell id="f6Qs1_ejb4W0hrU8sFKK-41" value="" style="line;strokeWidth=1;fillColor=none;align=left;verticalAlign=middle;spacingTop=-1;spacingLeft=3;spacingRight=3;rotatable=0;labelPosition=right;points=[];portConstraint=eastwest;strokeColor=inherit;fontColor=#143642;" vertex="1" parent="f6Qs1_ejb4W0hrU8sFKK-39">
          <mxGeometry y="26" width="136" height="8" as="geometry" />
        </mxCell>
        <mxCell id="f6Qs1_ejb4W0hrU8sFKK-42" value="+ draw (Graphics): void" style="text;strokeColor=none;fillColor=none;align=left;verticalAlign=top;spacingLeft=4;spacingRight=4;overflow=hidden;rotatable=0;points=[[0,0.5],[1,0.5]];portConstraint=eastwest;whiteSpace=wrap;html=1;fontColor=#143642;" vertex="1" parent="f6Qs1_ejb4W0hrU8sFKK-39">
          <mxGeometry y="34" width="136" height="26" as="geometry" />
        </mxCell>
        <mxCell id="f6Qs1_ejb4W0hrU8sFKK-43" value="Extends" style="endArrow=block;endSize=16;endFill=0;html=1;rounded=0;strokeColor=#A8201A;fontColor=#143642;fillColor=#FAE5C7;exitX=0;exitY=0.25;exitDx=0;exitDy=0;" edge="1" parent="1" source="f6Qs1_ejb4W0hrU8sFKK-44">
          <mxGeometry x="-0.2174" y="11" width="160" relative="1" as="geometry">
            <mxPoint x="387" y="520" as="sourcePoint" />
            <mxPoint x="268" y="332" as="targetPoint" />
            <mxPoint as="offset" />
          </mxGeometry>
        </mxCell>
        <mxCell id="f6Qs1_ejb4W0hrU8sFKK-44" value="Rectangle" style="swimlane;fontStyle=1;align=center;verticalAlign=top;childLayout=stackLayout;horizontal=1;startSize=26;horizontalStack=0;resizeParent=1;resizeParentMax=0;resizeLast=0;collapsible=1;marginBottom=0;whiteSpace=wrap;html=1;strokeColor=#0F8B8D;fontColor=#143642;fillColor=#FAE5C7;" vertex="1" parent="1">
          <mxGeometry x="346" y="317" width="135" height="60" as="geometry" />
        </mxCell>
        <mxCell id="f6Qs1_ejb4W0hrU8sFKK-45" value="" style="line;strokeWidth=1;fillColor=none;align=left;verticalAlign=middle;spacingTop=-1;spacingLeft=3;spacingRight=3;rotatable=0;labelPosition=right;points=[];portConstraint=eastwest;strokeColor=inherit;fontColor=#143642;" vertex="1" parent="f6Qs1_ejb4W0hrU8sFKK-44">
          <mxGeometry y="26" width="135" height="8" as="geometry" />
        </mxCell>
        <mxCell id="f6Qs1_ejb4W0hrU8sFKK-46" value="+ draw (Graphics): void" style="text;strokeColor=none;fillColor=none;align=left;verticalAlign=top;spacingLeft=4;spacingRight=4;overflow=hidden;rotatable=0;points=[[0,0.5],[1,0.5]];portConstraint=eastwest;whiteSpace=wrap;html=1;fontColor=#143642;" vertex="1" parent="f6Qs1_ejb4W0hrU8sFKK-44">
          <mxGeometry y="34" width="135" height="26" as="geometry" />
        </mxCell>
        <mxCell id="f6Qs1_ejb4W0hrU8sFKK-47" value="Extends" style="endArrow=block;endSize=16;endFill=0;html=1;rounded=0;strokeColor=#A8201A;fontColor=#143642;fillColor=#FAE5C7;exitX=0;exitY=0.25;exitDx=0;exitDy=0;entryX=0.76;entryY=1;entryDx=0;entryDy=0;entryPerimeter=0;" edge="1" parent="1" source="f6Qs1_ejb4W0hrU8sFKK-48" target="f6Qs1_ejb4W0hrU8sFKK-28">
          <mxGeometry x="0.0133" y="15" width="160" relative="1" as="geometry">
            <mxPoint x="324" y="737" as="sourcePoint" />
            <mxPoint x="208" y="504.004" as="targetPoint" />
            <mxPoint as="offset" />
            <Array as="points">
              <mxPoint x="210" y="549" />
            </Array>
          </mxGeometry>
        </mxCell>
        <mxCell id="f6Qs1_ejb4W0hrU8sFKK-48" value="Square" style="swimlane;fontStyle=1;align=center;verticalAlign=top;childLayout=stackLayout;horizontal=1;startSize=26;horizontalStack=0;resizeParent=1;resizeParentMax=0;resizeLast=0;collapsible=1;marginBottom=0;whiteSpace=wrap;html=1;strokeColor=#0F8B8D;fontColor=#143642;fillColor=#FAE5C7;" vertex="1" parent="1">
          <mxGeometry x="237" y="534" width="135" height="60" as="geometry" />
        </mxCell>
        <mxCell id="f6Qs1_ejb4W0hrU8sFKK-49" value="" style="line;strokeWidth=1;fillColor=none;align=left;verticalAlign=middle;spacingTop=-1;spacingLeft=3;spacingRight=3;rotatable=0;labelPosition=right;points=[];portConstraint=eastwest;strokeColor=inherit;fontColor=#143642;" vertex="1" parent="f6Qs1_ejb4W0hrU8sFKK-48">
          <mxGeometry y="26" width="135" height="8" as="geometry" />
        </mxCell>
        <mxCell id="f6Qs1_ejb4W0hrU8sFKK-50" value="+ draw (Graphics): void" style="text;strokeColor=none;fillColor=none;align=left;verticalAlign=top;spacingLeft=4;spacingRight=4;overflow=hidden;rotatable=0;points=[[0,0.5],[1,0.5]];portConstraint=eastwest;whiteSpace=wrap;html=1;fontColor=#143642;" vertex="1" parent="f6Qs1_ejb4W0hrU8sFKK-48">
          <mxGeometry y="34" width="135" height="26" as="geometry" />
        </mxCell>
        <mxCell id="f6Qs1_ejb4W0hrU8sFKK-52" value="LineSegment" style="swimlane;fontStyle=1;align=center;verticalAlign=top;childLayout=stackLayout;horizontal=1;startSize=26;horizontalStack=0;resizeParent=1;resizeParentMax=0;resizeLast=0;collapsible=1;marginBottom=0;whiteSpace=wrap;html=1;strokeColor=#0F8B8D;fontColor=#143642;fillColor=#FAE5C7;" vertex="1" parent="1">
          <mxGeometry x="20" y="573" width="135" height="60" as="geometry" />
        </mxCell>
        <mxCell id="f6Qs1_ejb4W0hrU8sFKK-53" value="" style="line;strokeWidth=1;fillColor=none;align=left;verticalAlign=middle;spacingTop=-1;spacingLeft=3;spacingRight=3;rotatable=0;labelPosition=right;points=[];portConstraint=eastwest;strokeColor=inherit;fontColor=#143642;" vertex="1" parent="f6Qs1_ejb4W0hrU8sFKK-52">
          <mxGeometry y="26" width="135" height="8" as="geometry" />
        </mxCell>
        <mxCell id="f6Qs1_ejb4W0hrU8sFKK-54" value="+ draw (Graphics): void" style="text;strokeColor=none;fillColor=none;align=left;verticalAlign=top;spacingLeft=4;spacingRight=4;overflow=hidden;rotatable=0;points=[[0,0.5],[1,0.5]];portConstraint=eastwest;whiteSpace=wrap;html=1;fontColor=#143642;" vertex="1" parent="f6Qs1_ejb4W0hrU8sFKK-52">
          <mxGeometry y="34" width="135" height="26" as="geometry" />
        </mxCell>
        <mxCell id="f6Qs1_ejb4W0hrU8sFKK-55" value="Extends" style="endArrow=block;endSize=16;endFill=0;html=1;rounded=0;strokeColor=#A8201A;fontColor=#143642;fillColor=#FAE5C7;exitX=0.25;exitY=0;exitDx=0;exitDy=0;entryX=0.14;entryY=1.013;entryDx=0;entryDy=0;entryPerimeter=0;" edge="1" parent="1" source="f6Qs1_ejb4W0hrU8sFKK-52" target="f6Qs1_ejb4W0hrU8sFKK-28">
          <mxGeometry x="-0.2174" y="11" width="160" relative="1" as="geometry">
            <mxPoint x="361" y="422" as="sourcePoint" />
            <mxPoint x="276" y="422" as="targetPoint" />
            <mxPoint as="offset" />
          </mxGeometry>
        </mxCell>
        <mxCell id="f6Qs1_ejb4W0hrU8sFKK-57" value="AppFrontend" style="swimlane;fontStyle=1;align=center;verticalAlign=top;childLayout=stackLayout;horizontal=1;startSize=26;horizontalStack=0;resizeParent=1;resizeParentMax=0;resizeLast=0;collapsible=1;marginBottom=0;whiteSpace=wrap;html=1;strokeColor=#0F8B8D;fontColor=#143642;fillColor=#FAE5C7;" vertex="1" parent="1">
          <mxGeometry x="305" y="930" width="307" height="161" as="geometry" />
        </mxCell>
        <mxCell id="f6Qs1_ejb4W0hrU8sFKK-58" value="- engine: DrawingEngine" style="text;strokeColor=none;fillColor=none;align=left;verticalAlign=top;spacingLeft=4;spacingRight=4;overflow=hidden;rotatable=0;points=[[0,0.5],[1,0.5]];portConstraint=eastwest;whiteSpace=wrap;html=1;fontColor=#143642;" vertex="1" parent="f6Qs1_ejb4W0hrU8sFKK-57">
          <mxGeometry y="26" width="307" height="26" as="geometry" />
        </mxCell>
        <mxCell id="f6Qs1_ejb4W0hrU8sFKK-59" value="" style="line;strokeWidth=1;fillColor=none;align=left;verticalAlign=middle;spacingTop=-1;spacingLeft=3;spacingRight=3;rotatable=0;labelPosition=right;points=[];portConstraint=eastwest;strokeColor=inherit;fontColor=#143642;" vertex="1" parent="f6Qs1_ejb4W0hrU8sFKK-57">
          <mxGeometry y="52" width="307" height="8" as="geometry" />
        </mxCell>
        <mxCell id="f6Qs1_ejb4W0hrU8sFKK-60" value="- colorizeButtonMouseClicked (MouseEvent): void&lt;div&gt;- deleteButtonMouseClicked (MouseEvent): void&lt;/div&gt;&lt;div&gt;- rectangleeButtonMouseClicked (MouseEvent): void&lt;/div&gt;&lt;div&gt;- squareButtonMouseClicked (MouseEvent): void&lt;/div&gt;&lt;div&gt;- circleButtonMouseClicked (MouseEvent): void&lt;/div&gt;&lt;div&gt;- lineSegmentButtonMouseClicked (MouseEvent): void&lt;/div&gt;" style="text;strokeColor=none;fillColor=none;align=left;verticalAlign=top;spacingLeft=4;spacingRight=4;overflow=hidden;rotatable=0;points=[[0,0.5],[1,0.5]];portConstraint=eastwest;whiteSpace=wrap;html=1;fontColor=#143642;" vertex="1" parent="f6Qs1_ejb4W0hrU8sFKK-57">
          <mxGeometry y="60" width="307" height="101" as="geometry" />
        </mxCell>
        <mxCell id="f6Qs1_ejb4W0hrU8sFKK-61" value="" style="endArrow=diamondThin;endFill=1;endSize=24;html=1;rounded=0;strokeColor=#A8201A;fontColor=#143642;fillColor=#FAE5C7;entryX=1;entryY=0.5;entryDx=0;entryDy=0;exitX=0.93;exitY=1.036;exitDx=0;exitDy=0;exitPerimeter=0;" edge="1" parent="1" source="f6Qs1_ejb4W0hrU8sFKK-20" target="f6Qs1_ejb4W0hrU8sFKK-60">
          <mxGeometry width="160" relative="1" as="geometry">
            <mxPoint x="677" y="974" as="sourcePoint" />
            <mxPoint x="837" y="974" as="targetPoint" />
            <Array as="points">
              <mxPoint x="812" y="1043" />
            </Array>
          </mxGeometry>
        </mxCell>
        <mxCell id="f6Qs1_ejb4W0hrU8sFKK-62" value="1" style="edgeLabel;html=1;align=center;verticalAlign=middle;resizable=0;points=[];strokeColor=#0F8B8D;fontColor=#143642;fillColor=#FAE5C7;" vertex="1" connectable="0" parent="f6Qs1_ejb4W0hrU8sFKK-61">
          <mxGeometry x="0.8883" y="1" relative="1" as="geometry">
            <mxPoint x="-6" y="13" as="offset" />
          </mxGeometry>
        </mxCell>
        <mxCell id="f6Qs1_ejb4W0hrU8sFKK-63" value="1" style="edgeLabel;html=1;align=center;verticalAlign=middle;resizable=0;points=[];strokeColor=#0F8B8D;fontColor=#143642;fillColor=#FAE5C7;" vertex="1" connectable="0" parent="f6Qs1_ejb4W0hrU8sFKK-61">
          <mxGeometry x="-0.9264" y="1" relative="1" as="geometry">
            <mxPoint x="8" y="-17" as="offset" />
          </mxGeometry>
        </mxCell>
        <mxCell id="f6Qs1_ejb4W0hrU8sFKK-64" value="LineSegmentConfig" style="swimlane;fontStyle=1;align=center;verticalAlign=top;childLayout=stackLayout;horizontal=1;startSize=26;horizontalStack=0;resizeParent=1;resizeParentMax=0;resizeLast=0;collapsible=1;marginBottom=0;whiteSpace=wrap;html=1;strokeColor=#0F8B8D;fontColor=#143642;fillColor=#FAE5C7;" vertex="1" parent="1">
          <mxGeometry x="20" y="780" width="319" height="143" as="geometry" />
        </mxCell>
        <mxCell id="f6Qs1_ejb4W0hrU8sFKK-65" value="- lineSegment: LineSegment&lt;div&gt;- newShape: boolean&lt;/div&gt;" style="text;strokeColor=none;fillColor=none;align=left;verticalAlign=top;spacingLeft=4;spacingRight=4;overflow=hidden;rotatable=0;points=[[0,0.5],[1,0.5]];portConstraint=eastwest;whiteSpace=wrap;html=1;fontColor=#143642;" vertex="1" parent="f6Qs1_ejb4W0hrU8sFKK-64">
          <mxGeometry y="26" width="319" height="42" as="geometry" />
        </mxCell>
        <mxCell id="f6Qs1_ejb4W0hrU8sFKK-66" value="" style="line;strokeWidth=1;fillColor=none;align=left;verticalAlign=middle;spacingTop=-1;spacingLeft=3;spacingRight=3;rotatable=0;labelPosition=right;points=[];portConstraint=eastwest;strokeColor=inherit;fontColor=#143642;" vertex="1" parent="f6Qs1_ejb4W0hrU8sFKK-64">
          <mxGeometry y="68" width="319" height="8" as="geometry" />
        </mxCell>
        <mxCell id="f6Qs1_ejb4W0hrU8sFKK-67" value="- cancelButtonMouseClicked (MouseEvent): Void&lt;div&gt;- saveButtonMouseClicked (MouseEvent): Void&lt;/div&gt;&lt;div&gt;- changeFillColorButtonMouseClicked (MouseEvent): Void&lt;/div&gt;" style="text;strokeColor=none;fillColor=none;align=left;verticalAlign=top;spacingLeft=4;spacingRight=4;overflow=hidden;rotatable=0;points=[[0,0.5],[1,0.5]];portConstraint=eastwest;whiteSpace=wrap;html=1;fontColor=#143642;" vertex="1" parent="f6Qs1_ejb4W0hrU8sFKK-64">
          <mxGeometry y="76" width="319" height="67" as="geometry" />
        </mxCell>
        <mxCell id="f6Qs1_ejb4W0hrU8sFKK-68" value="" style="endArrow=diamondThin;endFill=0;endSize=24;html=1;rounded=0;strokeColor=#A8201A;fontColor=#143642;fillColor=#FAE5C7;exitX=0.496;exitY=1.038;exitDx=0;exitDy=0;exitPerimeter=0;entryX=0.202;entryY=0;entryDx=0;entryDy=0;entryPerimeter=0;" edge="1" parent="1" source="f6Qs1_ejb4W0hrU8sFKK-54" target="f6Qs1_ejb4W0hrU8sFKK-64">
          <mxGeometry width="160" relative="1" as="geometry">
            <mxPoint x="63" y="702" as="sourcePoint" />
            <mxPoint x="223" y="702" as="targetPoint" />
          </mxGeometry>
        </mxCell>
        <mxCell id="f6Qs1_ejb4W0hrU8sFKK-69" value="SquareConfig" style="swimlane;fontStyle=1;align=center;verticalAlign=top;childLayout=stackLayout;horizontal=1;startSize=26;horizontalStack=0;resizeParent=1;resizeParentMax=0;resizeLast=0;collapsible=1;marginBottom=0;whiteSpace=wrap;html=1;strokeColor=#0F8B8D;fontColor=#143642;fillColor=#FAE5C7;" vertex="1" parent="1">
          <mxGeometry x="162" y="618" width="319" height="143" as="geometry" />
        </mxCell>
        <mxCell id="f6Qs1_ejb4W0hrU8sFKK-70" value="- square: Square&lt;div&gt;- newShape: boolean&lt;/div&gt;" style="text;strokeColor=none;fillColor=none;align=left;verticalAlign=top;spacingLeft=4;spacingRight=4;overflow=hidden;rotatable=0;points=[[0,0.5],[1,0.5]];portConstraint=eastwest;whiteSpace=wrap;html=1;fontColor=#143642;" vertex="1" parent="f6Qs1_ejb4W0hrU8sFKK-69">
          <mxGeometry y="26" width="319" height="42" as="geometry" />
        </mxCell>
        <mxCell id="f6Qs1_ejb4W0hrU8sFKK-71" value="" style="line;strokeWidth=1;fillColor=none;align=left;verticalAlign=middle;spacingTop=-1;spacingLeft=3;spacingRight=3;rotatable=0;labelPosition=right;points=[];portConstraint=eastwest;strokeColor=inherit;fontColor=#143642;" vertex="1" parent="f6Qs1_ejb4W0hrU8sFKK-69">
          <mxGeometry y="68" width="319" height="8" as="geometry" />
        </mxCell>
        <mxCell id="f6Qs1_ejb4W0hrU8sFKK-72" value="- cancelButtonMouseClicked (MouseEvent): Void&lt;div&gt;- saveButtonMouseClicked (MouseEvent): Void&lt;/div&gt;&lt;div&gt;- changeFillColorButtonMouseClicked (MouseEvent): Void&lt;/div&gt;&lt;div&gt;- changeColorButtonMouseClicked (MouseEvent): Void&lt;/div&gt;" style="text;strokeColor=none;fillColor=none;align=left;verticalAlign=top;spacingLeft=4;spacingRight=4;overflow=hidden;rotatable=0;points=[[0,0.5],[1,0.5]];portConstraint=eastwest;whiteSpace=wrap;html=1;fontColor=#143642;" vertex="1" parent="f6Qs1_ejb4W0hrU8sFKK-69">
          <mxGeometry y="76" width="319" height="67" as="geometry" />
        </mxCell>
        <mxCell id="f6Qs1_ejb4W0hrU8sFKK-73" value="" style="endArrow=diamondThin;endFill=0;endSize=24;html=1;rounded=0;strokeColor=#A8201A;fontColor=#143642;fillColor=#FAE5C7;exitX=0;exitY=0.5;exitDx=0;exitDy=0;entryX=0.095;entryY=0;entryDx=0;entryDy=0;entryPerimeter=0;" edge="1" parent="1" source="f6Qs1_ejb4W0hrU8sFKK-50" target="f6Qs1_ejb4W0hrU8sFKK-69">
          <mxGeometry width="160" relative="1" as="geometry">
            <mxPoint x="97" y="644" as="sourcePoint" />
            <mxPoint x="96" y="781" as="targetPoint" />
            <Array as="points">
              <mxPoint x="192" y="581" />
            </Array>
          </mxGeometry>
        </mxCell>
        <mxCell id="f6Qs1_ejb4W0hrU8sFKK-74" value="" style="endArrow=diamondThin;endFill=1;endSize=24;html=1;rounded=0;strokeColor=#A8201A;fontColor=#143642;fillColor=#FAE5C7;entryX=0;entryY=0.5;entryDx=0;entryDy=0;exitX=0.502;exitY=1.015;exitDx=0;exitDy=0;exitPerimeter=0;" edge="1" parent="1" source="f6Qs1_ejb4W0hrU8sFKK-67" target="f6Qs1_ejb4W0hrU8sFKK-60">
          <mxGeometry width="160" relative="1" as="geometry">
            <mxPoint x="107" y="1038" as="sourcePoint" />
            <mxPoint x="267" y="1038" as="targetPoint" />
            <Array as="points">
              <mxPoint x="180" y="1041" />
            </Array>
          </mxGeometry>
        </mxCell>
        <mxCell id="f6Qs1_ejb4W0hrU8sFKK-75" value="" style="endArrow=diamondThin;endFill=1;endSize=24;html=1;rounded=0;strokeColor=#A8201A;fontColor=#143642;fillColor=#FAE5C7;" edge="1" parent="1">
          <mxGeometry width="160" relative="1" as="geometry">
            <mxPoint x="356" y="762" as="sourcePoint" />
            <mxPoint x="358" y="927" as="targetPoint" />
          </mxGeometry>
        </mxCell>
        <mxCell id="f6Qs1_ejb4W0hrU8sFKK-76" value="RectangleConfig" style="swimlane;fontStyle=1;align=center;verticalAlign=top;childLayout=stackLayout;horizontal=1;startSize=26;horizontalStack=0;resizeParent=1;resizeParentMax=0;resizeLast=0;collapsible=1;marginBottom=0;whiteSpace=wrap;html=1;strokeColor=#0F8B8D;fontColor=#143642;fillColor=#FAE5C7;" vertex="1" parent="1">
          <mxGeometry x="376" y="385" width="319" height="143" as="geometry" />
        </mxCell>
        <mxCell id="f6Qs1_ejb4W0hrU8sFKK-77" value="- square: Square&lt;div&gt;- newShape: boolean&lt;/div&gt;" style="text;strokeColor=none;fillColor=none;align=left;verticalAlign=top;spacingLeft=4;spacingRight=4;overflow=hidden;rotatable=0;points=[[0,0.5],[1,0.5]];portConstraint=eastwest;whiteSpace=wrap;html=1;fontColor=#143642;" vertex="1" parent="f6Qs1_ejb4W0hrU8sFKK-76">
          <mxGeometry y="26" width="319" height="42" as="geometry" />
        </mxCell>
        <mxCell id="f6Qs1_ejb4W0hrU8sFKK-78" value="" style="line;strokeWidth=1;fillColor=none;align=left;verticalAlign=middle;spacingTop=-1;spacingLeft=3;spacingRight=3;rotatable=0;labelPosition=right;points=[];portConstraint=eastwest;strokeColor=inherit;fontColor=#143642;" vertex="1" parent="f6Qs1_ejb4W0hrU8sFKK-76">
          <mxGeometry y="68" width="319" height="8" as="geometry" />
        </mxCell>
        <mxCell id="f6Qs1_ejb4W0hrU8sFKK-79" value="- cancelButtonMouseClicked (MouseEvent): Void&lt;div&gt;- saveButtonMouseClicked (MouseEvent): Void&lt;/div&gt;&lt;div&gt;- changeFillColorButtonMouseClicked (MouseEvent): Void&lt;/div&gt;&lt;div&gt;- changeColorButtonMouseClicked (MouseEvent): Void&lt;/div&gt;" style="text;strokeColor=none;fillColor=none;align=left;verticalAlign=top;spacingLeft=4;spacingRight=4;overflow=hidden;rotatable=0;points=[[0,0.5],[1,0.5]];portConstraint=eastwest;whiteSpace=wrap;html=1;fontColor=#143642;" vertex="1" parent="f6Qs1_ejb4W0hrU8sFKK-76">
          <mxGeometry y="76" width="319" height="67" as="geometry" />
        </mxCell>
        <mxCell id="f6Qs1_ejb4W0hrU8sFKK-80" value="" style="endArrow=diamondThin;endFill=0;endSize=24;html=1;rounded=0;strokeColor=#A8201A;fontColor=#143642;fillColor=#FAE5C7;exitX=0;exitY=0.5;exitDx=0;exitDy=0;entryX=0.003;entryY=0.03;entryDx=0;entryDy=0;entryPerimeter=0;" edge="1" parent="1" source="f6Qs1_ejb4W0hrU8sFKK-46" target="f6Qs1_ejb4W0hrU8sFKK-79">
          <mxGeometry width="160" relative="1" as="geometry">
            <mxPoint x="325" y="360" as="sourcePoint" />
            <mxPoint x="370" y="460" as="targetPoint" />
            <Array as="points">
              <mxPoint x="285" y="364" />
              <mxPoint x="285" y="463" />
            </Array>
          </mxGeometry>
        </mxCell>
        <mxCell id="f6Qs1_ejb4W0hrU8sFKK-81" value="" style="endArrow=diamondThin;endFill=1;endSize=24;html=1;rounded=0;strokeColor=#A8201A;fontColor=#143642;fillColor=#FAE5C7;entryX=0.25;entryY=0;entryDx=0;entryDy=0;" edge="1" parent="1" target="f6Qs1_ejb4W0hrU8sFKK-57">
          <mxGeometry width="160" relative="1" as="geometry">
            <mxPoint x="490" y="527" as="sourcePoint" />
            <mxPoint x="488" y="925" as="targetPoint" />
            <Array as="points">
              <mxPoint x="490" y="767" />
              <mxPoint x="382" y="767" />
            </Array>
          </mxGeometry>
        </mxCell>
        <mxCell id="f6Qs1_ejb4W0hrU8sFKK-82" value="CircleConfig" style="swimlane;fontStyle=1;align=center;verticalAlign=top;childLayout=stackLayout;horizontal=1;startSize=26;horizontalStack=0;resizeParent=1;resizeParentMax=0;resizeLast=0;collapsible=1;marginBottom=0;whiteSpace=wrap;html=1;strokeColor=#0F8B8D;fontColor=#143642;fillColor=#FAE5C7;" vertex="1" parent="1">
          <mxGeometry x="483" y="776" width="319" height="143" as="geometry" />
        </mxCell>
        <mxCell id="f6Qs1_ejb4W0hrU8sFKK-83" value="- square: Square&lt;div&gt;- newShape: boolean&lt;/div&gt;" style="text;strokeColor=none;fillColor=none;align=left;verticalAlign=top;spacingLeft=4;spacingRight=4;overflow=hidden;rotatable=0;points=[[0,0.5],[1,0.5]];portConstraint=eastwest;whiteSpace=wrap;html=1;fontColor=#143642;" vertex="1" parent="f6Qs1_ejb4W0hrU8sFKK-82">
          <mxGeometry y="26" width="319" height="42" as="geometry" />
        </mxCell>
        <mxCell id="f6Qs1_ejb4W0hrU8sFKK-84" value="" style="line;strokeWidth=1;fillColor=none;align=left;verticalAlign=middle;spacingTop=-1;spacingLeft=3;spacingRight=3;rotatable=0;labelPosition=right;points=[];portConstraint=eastwest;strokeColor=inherit;fontColor=#143642;" vertex="1" parent="f6Qs1_ejb4W0hrU8sFKK-82">
          <mxGeometry y="68" width="319" height="8" as="geometry" />
        </mxCell>
        <mxCell id="f6Qs1_ejb4W0hrU8sFKK-85" value="- cancelButtonMouseClicked (MouseEvent): Void&lt;div&gt;- saveButtonMouseClicked (MouseEvent): Void&lt;/div&gt;&lt;div&gt;- changeFillColorButtonMouseClicked (MouseEvent): Void&lt;/div&gt;&lt;div&gt;- changeColorButtonMouseClicked (MouseEvent): Void&lt;/div&gt;" style="text;strokeColor=none;fillColor=none;align=left;verticalAlign=top;spacingLeft=4;spacingRight=4;overflow=hidden;rotatable=0;points=[[0,0.5],[1,0.5]];portConstraint=eastwest;whiteSpace=wrap;html=1;fontColor=#143642;" vertex="1" parent="f6Qs1_ejb4W0hrU8sFKK-82">
          <mxGeometry y="76" width="319" height="67" as="geometry" />
        </mxCell>
        <mxCell id="f6Qs1_ejb4W0hrU8sFKK-86" value="" style="endArrow=diamondThin;endFill=1;endSize=24;html=1;rounded=0;strokeColor=#A8201A;fontColor=#143642;fillColor=#FAE5C7;exitX=0.661;exitY=1.015;exitDx=0;exitDy=0;exitPerimeter=0;entryX=1;entryY=0.5;entryDx=0;entryDy=0;" edge="1" parent="1" source="f6Qs1_ejb4W0hrU8sFKK-85" target="f6Qs1_ejb4W0hrU8sFKK-58">
          <mxGeometry width="160" relative="1" as="geometry">
            <mxPoint x="627" y="1109" as="sourcePoint" />
            <mxPoint x="787" y="1109" as="targetPoint" />
            <Array as="points">
              <mxPoint x="694" y="969" />
            </Array>
          </mxGeometry>
        </mxCell>
        <mxCell id="f6Qs1_ejb4W0hrU8sFKK-87" value="" style="endArrow=diamondThin;endFill=0;endSize=24;html=1;rounded=0;strokeColor=#A8201A;fontColor=#143642;fillColor=#FAE5C7;exitX=0.868;exitY=0.923;exitDx=0;exitDy=0;exitPerimeter=0;entryX=0.774;entryY=0.007;entryDx=0;entryDy=0;entryPerimeter=0;" edge="1" parent="1" source="f6Qs1_ejb4W0hrU8sFKK-42" target="f6Qs1_ejb4W0hrU8sFKK-82">
          <mxGeometry width="160" relative="1" as="geometry">
            <mxPoint x="596" y="650" as="sourcePoint" />
            <mxPoint x="756" y="650" as="targetPoint" />
            <Array as="points">
              <mxPoint x="518" y="366" />
              <mxPoint x="723" y="368" />
            </Array>
          </mxGeometry>
        </mxCell>
      </root>
    </mxGraphModel>
  </diagram>
</mxfile>
